# xmcd CD database file
#
# Track frame offsets:
#	150
#	18473
#	31705
#	50998
#	65688
#	83291
#	97468
#	125442
#	143669
#	160872
#	175370
#	198780
#
# Disc length: 2903 seconds
#
# Revision: 0
# Processed by: cddbd v1.5.2PL0 Copyright (c) Steve Scherf et al.
# Submitted via: CDex 2.08
#
DISCID=a00b550c
DTITLE=Claudia Nygaard - Let the Storm Roll In
DYEAR=2011
DGENRE=Country
TTITLE0=Big Country
TTITLE1=Miss Kitty
TTITLE2=J.C.
TTITLE3=Twelve Little Red Heartaches
TTITLE4=Georgia Boy
TTITLE5=Coyote
TTITLE6=His Left Side
TTITLE7=Say It
TTITLE8=I Want To Touch You
TTITLE9=What's Cookin'
TTITLE10=Montana Wind
TTITLE11=Let the Storm Roll In
EXTD=YEAR: 2011
EXTT0=
EXTT1=
EXTT2=
EXTT3=
EXTT4=
EXTT5=
EXTT6=
EXTT7=
EXTT8=
EXTT9=
EXTT10=
EXTT11=
PLAYORDER=
